<?xml version="1.0" encoding="UTF-8"?>
<svg width="1506px" height="470px" viewBox="0 0 1506 470" version="1.1" xmlns="http://www.w3.org/2000/svg" xmlns:xlink="http://www.w3.org/1999/xlink">
    <title>logo-remix</title>
    <g id="logo-remix" stroke="none" stroke-width="1" fill="none" fill-rule="evenodd">
        <path d="M1416.64242,408.07206 C1415.51449,408.323532 1414.82445,408.447063 1414.57675,408.447063 L1391.76587,408.544122 L1372.42727,408.619122 C1370.86585,408.098531 151.304305,409.020595 149.831351,408.447063 C145.06305,406.594111 148.911308,403.14409 144.138584,401.807318 L144.218203,367.915944 C144.218203,367.254175 144.682648,366.671819 145.624807,366.177698 C146.55812,365.679166 147.21719,365.264458 147.593169,364.933573 C147.717021,364.933573 148.088577,364.598277 148.721107,363.940921 C149.34479,363.27474 149.778272,362.943856 150.030399,362.943856 C150.154251,362.776208 150.658505,362.736502 151.529892,362.820326 C152.410126,362.90415 152.905534,362.943856 153.033809,362.943856 C157.032459,362.286499 161.035532,361.743849 165.038604,361.324729 C169.037254,360.918844 173.040326,360.71149 177.043399,360.71149 C178.166914,360.71149 179.259465,360.874726 180.325477,361.201199 C181.382642,361.536495 182.545965,361.699731 183.797755,361.699731 C186.920594,361.699731 1372.06014,361.536495 1375.19182,361.201199 C1378.31466,360.874726 1381.37557,360.71149 1384.37898,360.71149 L1388.12993,360.71149 C1388.74919,360.71149 1390.09387,360.874726 1392.16397,361.201199 C1394.22522,361.536495 1396.50321,361.867379 1399.01121,362.202675 C1401.50594,362.533559 1403.91221,362.864444 1406.23443,363.190916 C1408.54339,363.5218 1410.26405,363.773272 1411.39199,363.940921 C1412.76763,364.099745 1414.01499,364.351217 1415.13851,364.682101 C1416.26644,365.017397 1417.20418,366.089462 1417.95614,367.915944 C1417.95614,368.577712 1417.9871,369.782131 1418.04903,371.520377 C1418.11095,373.263034 1418.20384,375.085103 1418.33212,376.990997 C1418.45155,378.89689 1418.54886,380.727783 1418.61079,382.461617 C1418.67714,384.208686 1418.70367,385.404281 1418.70367,386.070461 L1418.70367,406.461757 C1418.45155,407.286762 1417.76594,407.825 1416.64242,408.07206" id="Fill-4" fill="#000000"></path>
        <g id="logo-round" transform="translate(43.562669, 30.561750)">
            <path d="M-7.10542736e-15,177.172559 C-7.10542736e-15,169.817334 0.158226562,162.774678 0.480199219,156.04 C0.7948125,149.312207 2.09052246,142.43249 4.33513184,135.389834 C8.50053809,121.006182 14.9984062,107.310088 23.821377,94.3497461 C32.6346885,81.3852734 42.0229512,68.9853516 51.9640869,57.1467676 C56.4574453,52.0208301 61.1048906,47.704082 65.916082,44.1822949 C70.7355527,40.6572949 76.3415566,36.8275293 82.7497324,32.6594922 C96.5481006,23.383877 111.38782,15.6091406 127.259232,9.37567383 C143.134784,3.12384766 159.740754,1.0658141e-14 177.052764,1.0658141e-14 C195.016538,1.0658141e-14 212.341427,1.45589844 229.01869,4.33464844 C245.697794,7.21018555 262.058604,13.2949414 278.101122,22.5705566 C278.737708,22.9046973 280.420245,24.175166 283.154713,26.4039941 C285.872162,28.6553125 287.54918,30.0923926 288.200484,30.7386426 C298.465893,38.097998 308.648968,45.1411133 318.757529,51.8533008 C328.855512,58.5847656 338.076349,66.5894531 346.4205,75.8613965 C346.4205,76.1955371 347.057086,77.0726562 348.339457,78.5101953 C349.625508,79.9477344 350.997571,81.6152246 352.438169,83.5544336 C353.878767,85.4716113 355.399397,87.4700293 357.007421,89.5574902 C358.609925,91.6417383 359.72487,93.1421582 360.372495,94.118877 C360.683889,94.7472266 361.417066,95.8689844 362.533852,97.4735938 C363.663516,99.081875 364.383814,100.036563 364.707627,100.352344 C365.018561,100.664912 366.064512,101.704971 367.831222,103.47665 C369.593792,105.229971 370.637903,106.4371 370.959876,107.083809 C371.276329,107.39959 371.358202,108.751299 371.202275,111.147656 C371.03439,113.566045 370.959876,114.921426 370.959876,115.230322 C370.959876,115.880244 371.600142,117.878203 372.884813,121.236592 C374.159364,124.59085 374.959696,126.593398 375.285349,127.239648 C375.285349,127.547627 375.443575,128.447236 375.778887,129.884316 C376.08982,131.321855 376.488146,132.845225 376.977545,134.427344 C377.455904,136.032412 377.939783,137.555322 378.418143,138.992861 C378.898342,140.452891 379.138441,141.329551 379.138441,141.637529 C379.451215,142.28791 380.173354,143.725449 381.299338,145.950605 C382.417963,148.205596 382.982335,149.642676 382.982335,150.266895 L382.982335,159.899141 C382.982335,160.523359 383.066048,161.56709 383.233474,163.004629 C383.3917,164.442627 383.62766,165.961865 383.953772,167.566475 C384.268386,169.171084 384.506646,170.693994 384.674071,172.131533 C384.832298,173.569531 384.912331,174.445732 384.912331,174.780332 C384.912331,175.092441 384.986845,176.444609 385.154271,178.840508 C385.310657,181.258896 385.39437,183.970576 385.39437,187.012725 C385.39437,190.055332 385.466584,193.097939 385.63263,196.140088 C385.789017,199.182236 385.874569,201.663506 385.874569,203.580225 C385.874569,216.377627 385.39437,230.300459 384.433972,245.352393 C383.460694,260.396982 380.411613,273.673564 375.285349,285.200039 C374.637724,286.158398 373.841071,287.595937 372.884813,289.512656 C371.922114,291.429375 370.959876,293.513623 369.992118,295.764482 C369.02942,297.993311 367.985769,300.08123 366.868523,301.997949 C365.738859,303.914668 365.018561,305.374697 364.707627,306.333057 C364.383814,306.957275 363.663516,308.001006 362.533852,309.438545 C361.417066,310.876084 360.683889,311.916143 360.372495,312.566523 C352.991042,321.52957 345.054416,330.322793 336.559397,338.970518 C328.05288,347.599424 319.634215,355.935039 311.299723,363.940645 C305.836767,369.06291 299.428131,373.52791 292.051737,377.380166 C284.667984,381.217734 277.933696,384.909805 271.845653,388.42792 C261.904518,393.870098 250.267506,397.306055 236.955316,398.744053 C223.650486,400.185264 211.704841,400.913213 201.11378,400.913213 C180.585724,400.913213 161.024965,398.494824 142.414025,393.703027 C123.814125,388.9071 106.010877,381.072695 89.0093408,370.16998 C87.7251299,369.52373 86.0407529,368.565371 83.9635693,367.294902 C81.8638477,366.024434 79.8685371,364.650234 77.95004,363.209023 C76.0154443,361.771025 74.3370469,360.563896 72.8964492,359.605537 C71.4558516,358.643506 70.567667,358.019287 70.2512139,357.685146 C69.9274014,357.685146 68.235665,356.33252 65.1962432,353.60248 C62.1471621,350.890801 58.5346289,347.599424 54.3669229,343.765986 C50.2015166,339.932549 45.9537773,336.09498 41.6191055,332.257871 C37.291333,328.405615 33.6765,325.214756 30.7953047,322.651328 C31.1135977,322.651328 30.7953047,322.172607 29.8390459,321.213789 L28.8653086,320.255889 C28.5525352,319.605508 27.9044502,317.60709 26.9445117,314.230342 C25.9822734,310.876084 25.3360283,308.877666 25.0237148,308.249775 C21.1706221,298.955801 17.3253486,290.159365 13.4740957,281.823291 C9.61962305,273.528525 6.56870215,264.39749 4.33513184,254.479297 C4.00947949,254.145156 3.92760645,252.874687 4.09319238,250.623369 C4.25141895,248.395 4.33513184,247.09791 4.33513184,246.789932 C3.0509209,234.947217 2.00680957,223.339043 1.20095801,211.983311 C0.396486328,200.619775 -7.10542736e-15,189.015273 -7.10542736e-15,177.172559" id="Fill-2" fill="#EA0D8C"></path>
            <path d="M59.4538608,114.587285 C59.3236919,113.944707 59.5302144,113.461855 60.0665288,113.142402 C65.6909312,113.461855 71.0793735,113.342979 76.2258765,112.7821 C81.376519,112.220762 86.6587104,111.942617 92.0696909,111.942617 L96.0175356,111.942617 C97.7410093,111.942617 99.2855581,112.340098 100.649802,113.142402 C102.373736,114.267832 103.698883,115.430439 104.616505,116.630225 C105.532288,117.837813 106.304562,119.082119 106.936088,120.359932 C107.566695,121.649219 108.143946,123.049121 108.6798,124.57249 C109.206456,126.103203 109.872939,127.740859 110.673271,129.505654 C110.704548,129.665381 110.92625,130.029355 111.339294,130.590234 C111.750959,131.151113 111.97588,131.515088 112.004398,131.671143 C115.04566,137.124336 117.742411,142.740928 120.095111,148.514033 C122.447811,154.289893 124.666203,160.14791 126.753045,166.080283 C128.835749,172.016787 130.832899,177.915195 132.751856,183.766328 C134.670813,189.628018 136.548833,195.285918 138.387757,200.731309 C138.762166,201.860869 139.41393,203.825781 140.349951,206.630176 C141.280452,209.435029 142.325023,212.403281 143.476765,215.534473 C144.623448,218.662451 145.764611,221.552217 146.892435,224.196885 C148.018419,226.842012 149.055171,228.647656 150.000851,229.609688 C151.018745,226.403682 151.845294,222.993428 152.475901,219.382598 C153.107427,215.772227 153.464357,212.283945 153.54439,208.915 L157.870323,124.212188 C157.349187,120.839111 157.423701,118.402363 158.101223,116.875781 C158.773226,115.34874 159.798479,114.267832 161.172382,113.625254 C162.547666,112.986348 164.295517,112.704072 166.413637,112.7821 C168.535437,112.863799 170.949772,112.900518 173.658022,112.900518 C174.556786,112.900518 175.91781,112.945498 177.739715,113.023525 C179.560241,113.105225 180.542717,113.142402 180.691745,113.142402 C184.211366,113.461855 186.968372,115.032959 188.958163,117.837813 C190.941974,120.642207 192.596914,123.491123 193.927581,126.377676 C201.437823,141.455771 209.039597,156.217627 216.721405,170.656816 C224.408272,185.092334 232.696768,199.527852 241.582293,213.970713 C241.519279,213.65126 241.499041,212.967373 241.513759,211.923643 C241.532618,210.879912 241.511919,210.199697 241.450285,209.880703 C241.532618,209.553447 241.537677,208.840186 241.467303,207.711543 C241.39233,206.589326 241.353693,205.426719 241.334834,204.223262 C241.318276,203.019805 241.314596,201.860869 241.314596,200.731309 C241.318276,199.612764 241.286539,198.888945 241.225364,198.56582 C241.180748,197.607461 241.260781,195.196416 241.476502,191.347832 C241.686705,187.499707 241.917605,183.37252 242.165064,178.955713 C242.416663,174.550381 242.602487,170.411719 242.738635,166.563594 C242.874324,162.71501 242.995293,160.307637 243.105224,159.341934 C243.1572,158.863213 243.125462,157.941572 243.006333,156.578389 C242.883523,155.218418 242.943318,154.375723 243.177898,154.052139 C243.148,153.892412 242.978275,153.413232 242.665501,152.607256 C242.355028,151.808623 242.33249,151.3221 242.602487,151.158701 C242.539012,150.839248 242.623185,149.958457 242.865125,148.514033 C243.105224,147.072363 243.209175,146.270059 243.177898,146.110332 C243.259771,145.787207 243.317266,144.947725 243.347164,143.580869 C243.375221,142.221357 243.399139,140.816865 243.412018,139.371523 C243.421677,137.926641 243.443755,136.526279 243.473653,135.159424 C243.50171,133.795781 243.488372,132.956299 243.421677,132.633174 C243.50907,132.31418 243.652118,131.515088 243.848061,130.22626 C244.043084,128.948447 244.231208,127.458584 244.424392,125.775947 C244.614356,124.089639 244.778102,122.447393 244.908731,120.839111 C245.04074,119.241846 245.172749,118.03793 245.314417,117.236084 C245.428027,116.269922 245.802435,115.151836 246.44776,113.86668 C247.095385,112.581523 248.020827,111.942617 249.219485,111.942617 L283.717015,111.942617 L288.01673,113.142402 L288.83546,117.236084 C289.376834,119.962451 289.849674,122.729668 290.261339,125.538193 C290.668865,128.342588 290.921843,131.113936 291.012916,133.83709 C291.206559,145.386055 290.789834,156.697266 289.762282,167.767051 C288.737029,178.836836 287.873222,190.144375 287.167642,201.69334 C287.111987,202.180322 287.065531,203.260771 287.020915,204.943867 C286.979518,206.630176 286.968479,208.431689 286.974458,210.359883 C286.979518,212.283945 286.974458,214.133652 286.950081,215.890645 C286.923863,217.659111 286.962959,218.777197 287.054032,219.26418 C286.784035,219.423906 286.644667,219.862236 286.644667,220.586514 C286.633627,221.307119 286.587171,221.83082 286.507138,222.150273 C285.832835,226.325654 285.786379,230.615781 286.36363,235.021572 C286.939042,239.438838 287.132685,243.80332 286.948241,248.138428 C286.771156,248.781006 286.60557,250.389746 286.438144,252.952715 C286.270718,255.523027 286.117551,258.324209 285.970824,261.37416 C285.827776,264.423652 285.682428,267.273027 285.533401,269.914023 C285.382994,272.562822 285.298821,274.208281 285.276283,274.850859 C285.250525,275.489766 285.267543,276.496777 285.31216,277.859961 C285.356316,279.223145 285.388053,280.708877 285.408751,282.309814 C285.42945,283.914883 285.417951,285.356094 285.371495,286.64125 C285.325039,287.926406 285.349417,288.807197 285.446008,289.286377 L286.449183,294.34209 C286.518177,294.664756 286.402727,295.983877 286.114332,298.312764 C285.824096,300.637979 285.566978,302.361924 285.343437,303.483682 C284.971329,305.407744 284.137419,306.893936 282.847689,307.933994 C281.550139,308.981396 280.025829,309.828682 278.277977,310.467129 C276.523226,311.102363 274.721099,311.503975 272.880335,311.667373 C271.026693,311.823428 269.355195,311.905127 267.851123,311.905127 L265.598694,311.905127 C264.69993,311.905127 263.365583,311.823428 261.604853,311.667373 C259.847342,311.503975 258.088452,311.384639 256.348419,311.306611 C254.602408,311.218027 253.010943,311.143672 251.564826,311.065645 C250.118249,310.983945 249.323896,310.942637 249.172569,310.942637 C247.185078,310.787041 245.334655,309.780488 243.611641,307.933994 C241.895527,306.091172 240.304062,303.966533 238.848286,301.559619 C237.38745,299.152246 236.078861,296.708154 234.90964,294.222754 C233.73352,291.730469 232.768982,289.691201 231.993028,288.08292 C227.617419,278.94041 223.112562,269.914023 218.487195,261.013398 C213.854468,252.113232 209.635247,243.004688 205.83045,233.703369 C205.366809,232.904277 204.583496,231.017393 203.464871,228.045469 C202.348085,225.077676 201.138388,221.83082 199.831639,218.298477 C198.52857,214.773018 197.318873,211.52249 196.198408,208.554238 C195.079783,205.586445 194.368683,203.706904 194.059589,202.896797 C193.69484,202.581016 193.294674,201.69334 192.855412,200.255801 C192.417989,198.810918 191.788762,197.930586 190.973711,197.607461 C191.072143,198.090312 191.130098,199.130371 191.150796,200.731309 C191.167355,202.33959 191.22485,203.383779 191.323742,203.8625 C191.277286,205.148115 191.183914,207.154336 191.051905,209.880703 C190.919436,212.607529 190.769029,215.456445 190.614482,218.421025 C190.452576,221.39249 190.28285,224.118857 190.098866,226.600586 C189.919941,229.089658 189.831168,230.735117 189.844047,231.533291 C189.759875,232.662852 189.559332,235.385547 189.2185,239.716982 C188.879969,244.048418 188.490842,248.699307 188.05158,253.669648 C187.611857,258.647334 187.22319,263.297764 186.884199,267.625527 C186.540148,271.960635 186.337305,274.691133 186.257272,275.809219 C186.204836,276.29207 186.16436,277.016348 186.130783,277.978379 C186.095366,278.94041 186.031891,279.583447 185.946338,279.9029 C186.011193,280.226025 186.106405,280.905781 186.242553,281.94584 C186.372262,282.993701 186.51393,284.07415 186.661118,285.196367 C186.810145,286.321797 186.914096,287.406377 186.972051,288.442764 C187.025867,289.494297 187.076002,290.092354 187.10958,290.248408 C187.173054,290.575205 187.098541,290.972686 186.897078,291.451865 C186.687335,291.938389 186.605462,292.257842 186.63674,292.417568 C186.534168,294.178232 186.527269,296.021055 186.610522,297.948789 C186.688715,299.876523 186.597643,301.682168 186.337305,303.364805 C186.069148,305.051572 185.525934,306.488652 184.717783,307.692568 C183.906412,308.896025 182.465354,309.583125 180.39047,309.73918 C180.086896,309.73918 179.392815,309.828682 178.298108,309.980605 C177.203861,310.144463 176.021761,310.262881 174.761468,310.345039 C173.497956,310.426738 172.280899,310.545156 171.113518,310.704883 C169.939238,310.864609 169.20376,310.942637 168.904326,310.942637 C168.753458,310.942637 168.332594,311.102363 167.647712,311.425947 C166.955471,311.741729 166.538287,311.905127 166.391099,311.905127 L165.266955,311.905127 L163.457928,311.905127 C162.408297,311.905127 160.997137,311.823428 159.238707,311.667373 C157.479356,311.503975 155.725985,311.384639 153.984113,311.306611 C152.236261,311.218027 150.646636,311.143672 149.202359,311.065645 C147.754402,310.983945 146.95775,310.942637 146.808722,310.942637 C146.473411,310.787041 145.909499,310.582793 145.111006,310.345039 C144.308834,310.099482 143.819436,309.903037 143.638671,309.73918 C142.788204,309.26 141.676938,308.379668 140.295675,307.094512 C138.909353,305.808896 138.030828,305.010723 137.672978,304.687139 L103.940823,231.533291 C103.875508,231.214297 103.561355,230.411533 103.008482,229.126377 C102.450089,227.844893 102.126277,226.960889 102.031065,226.481709 C101.716452,225.679404 101.167718,224.037158 100.369226,221.552217 C99.5744136,219.063145 98.5707788,216.099023 97.3615415,212.644248 C96.1421851,209.197275 94.9375474,205.586445 93.7356694,201.812217 C92.5333315,198.049463 91.326854,194.442305 90.1153169,190.987988 C88.8996401,187.540098 87.889106,184.535127 87.0754351,181.960684 C86.264064,179.401387 85.7019917,177.71875 85.3910581,176.909102 C85.0824243,176.11001 84.4476782,174.427832 83.4831401,171.857061 C82.5232017,169.293633 81.8121021,167.607324 81.3503013,166.801348 C80.7919087,165.523076 79.6098091,162.800381 77.8063022,158.621328 C75.9935962,154.45375 74.0484214,149.958457 71.9620386,145.151973 C69.8751958,140.334014 67.8614868,135.683125 65.9144722,131.188291 C63.9692974,126.697129 62.560437,123.413555 61.6984702,121.325635 C61.6317759,121.006182 61.3691382,120.445303 60.9077974,119.635654 C60.4478364,118.837021 60.205897,118.357842 60.1741597,118.193984 L59.7385767,116.028496 C59.6751021,115.712715 59.5766704,115.230322 59.4538608,114.587285" id="Fill-4" fill="#F4F5F5"></path>
        </g>
        <path d="M440.158957,240.006227 C440.030682,237.275328 439.782978,234.456194 439.411422,231.553236 C439.031019,228.65469 438.535611,225.998792 437.907505,223.594366 C437.279398,221.18994 436.465514,219.826697 435.470275,219.491401 L421.775785,216.010498 L366.506842,216.010498 C360.172698,217.832568 353.931443,220.461995 352.39214,227.503213 C352.025007,229.188517 351.706531,230.909115 351.445557,232.660596 C351.472097,233.441483 351.498636,234.262076 351.525176,235.034139 C351.710954,241.087115 351.901155,246.513618 352.091356,251.322469 C352.091356,251.437176 352.100203,251.538647 352.104626,251.653353 C352.148859,251.732766 352.206362,251.803354 352.241748,251.887178 C353.679316,255.293081 356.572144,257.838684 359.63748,259.784283 C380.497691,259.740165 403.13164,259.696047 404.892107,259.65193 C408.143221,259.572517 411.208558,259.444575 414.083693,259.281339 C416.958828,259.113691 418.962576,259.029867 420.08609,259.029867 C422.337542,258.866631 424.65092,258.782807 427.030647,258.782807 C429.405951,258.782807 431.595477,258.407805 433.594802,257.662212 C435.589704,256.916619 437.217472,255.6372 438.469262,253.810719 C439.716628,251.984238 440.344735,249.165104 440.344735,245.348905 C440.344735,244.519488 440.278385,242.741537 440.158957,240.006227" id="Fill-6" fill="#000000"></path>
        <path d="M439.409652,148.625252 C438.777123,146.970831 438.281715,145.726706 437.910159,144.892878 C437.786307,144.734053 437.529756,144.566405 437.1582,144.394345 C436.782221,144.231109 436.468168,144.147285 436.220464,144.147285 C435.472929,143.979637 434.119404,143.772283 432.186428,143.529634 C430.249029,143.27375 428.152393,143.031102 425.900941,142.784042 C423.658335,142.528158 421.521889,142.325215 419.522564,142.157567 C417.523239,141.994331 416.147598,141.914919 415.404486,141.914919 L395.888953,141.914919 C395.141418,142.40904 393.761353,142.739924 391.762028,142.90316 C389.762704,143.070808 387.568754,143.154632 385.197874,143.154632 C382.818147,143.154632 380.628621,143.031102 378.633719,142.784042 C376.629971,142.528158 375.258753,142.245803 374.506794,141.914919 C374.254667,141.914919 373.69291,141.994331 372.8171,142.157567 C371.941289,142.325215 371.003553,142.448746 370.003891,142.528158 C368.995382,142.620805 368.062069,142.739924 367.190681,142.90316 C366.310448,143.070808 365.810617,143.154632 365.686765,143.154632 L352.748657,143.154632 C351.996698,143.816401 351.275703,144.685523 350.58567,145.766412 C349.900061,146.847301 349.559468,148.042896 349.559468,149.370845 L349.559468,169.510668 C349.559468,171.840094 349.616971,175.395997 349.745246,180.204848 C349.749669,180.372496 349.749669,180.557792 349.758516,180.734263 C352.354984,183.579868 355.380511,185.565174 358.706821,186.915182 L435.472929,185.428408 C436.096612,185.428408 437.065311,184.846052 438.374604,183.685751 C439.692743,182.529862 440.347389,181.444561 440.347389,180.451909 L440.347389,151.360562 C440.347389,151.197326 440.033335,150.284085 439.409652,148.625252" id="Fill-8" fill="#000000"></path>
        <path d="M439.16991,296.55788 C438.041973,296.306408 437.35194,296.182878 437.104236,296.182878 L414.293357,296.09023 L394.950332,296.010818 C393.393336,296.531409 355.839648,295.609345 354.366694,296.182878 C349.598393,298.03583 353.446651,301.48585 348.67835,302.827034 L348.757969,336.718409 C348.757969,337.375765 349.222414,337.958122 350.16015,338.452242 C351.097887,338.950775 351.752533,339.365483 352.132935,339.696367 C352.252364,339.696367 352.628343,340.031663 353.25645,340.693432 C353.880133,341.3552 354.318038,341.686085 354.570165,341.686085 C354.689594,341.853733 355.198272,341.893439 356.065235,341.814027 C356.945469,341.725791 357.440877,341.686085 357.569152,341.686085 C361.567802,342.347853 365.570875,342.890504 369.573947,343.305212 C373.572597,343.715508 377.575669,343.922863 381.578742,343.922863 C382.702257,343.922863 383.799231,343.755214 384.86082,343.428742 C385.922408,343.093446 387.081309,342.93021 388.333098,342.93021 C391.455937,342.93021 394.5832,343.093446 397.714885,343.428742 C400.837724,343.755214 403.898637,343.922863 406.902048,343.922863 L410.652993,343.922863 C411.2811,343.922863 412.625778,343.755214 414.687029,343.428742 C416.752703,343.093446 419.035118,342.762562 421.534274,342.431677 C424.037853,342.096381 426.439697,341.769909 428.757498,341.439025 C431.070876,341.10814 432.791534,340.856668 433.919471,340.693432 C435.29069,340.530196 436.542479,340.278724 437.665993,339.947839 C438.793931,339.616955 439.731667,338.540478 440.479203,336.718409 C440.479203,336.05664 440.514589,334.84781 440.576515,333.109564 C440.634018,331.366907 440.726907,329.544837 440.855182,327.638944 C440.983457,325.73305 441.076346,323.906569 441.133849,322.168324 C441.204621,320.425667 441.231161,319.230071 441.231161,318.563891 L441.231161,298.168184 C440.983457,297.343179 440.293425,296.809352 439.16991,296.55788" id="Fill-12" fill="#000000"></path>
        <path d="M458.104666,342.365059 C457.967544,340.29593 457.830422,337.079734 457.702147,332.698826 C457.560601,328.326742 457.392517,323.438478 457.189046,318.025211 C456.985574,312.620768 456.786527,306.929558 456.578632,300.964818 C456.375161,295.000077 456.202653,289.313279 456.069955,283.904424 C455.932833,278.491157 455.800134,273.602893 455.663012,269.226397 C455.52589,264.854313 455.459541,261.629294 455.459541,259.560164 L455.459541,253.595424 C455.459541,250.101286 455.428578,246.117439 455.357806,241.66153 C455.291456,237.214446 455.260493,232.758537 455.260493,228.298217 L455.260493,217.802568 L455.260493,209.446637 C455.260493,205.471613 455.291456,201.258354 455.357806,196.798033 C455.428578,192.346537 455.459541,188.128865 455.459541,184.153842 L455.459541,175.802323 C455.59224,175.167025 455.769171,173.812605 455.968219,171.743475 C456.17169,169.678757 456.273426,168.324338 456.273426,167.684628 C456.273426,166.72727 456.308812,165.103731 456.375161,162.796364 C456.445934,160.484586 456.476897,158.018395 456.476897,155.397792 C456.476897,152.768365 456.445934,150.310997 456.375161,147.994807 C456.308812,145.696265 456.273426,144.05949 456.273426,143.106544 C457.626951,142.471246 458.715079,142.113891 459.52454,142.034478 C460.342848,141.955066 461.35578,141.910948 462.576606,141.910948 L465.832144,141.910948 C466.778727,142.069773 468.472845,142.193303 470.914498,142.268303 C473.356151,142.352127 475.89954,142.471246 478.544665,142.625658 C481.185366,142.793306 483.693368,142.908013 486.068672,142.987425 C488.435129,143.066837 490.098284,143.106544 491.049291,143.106544 C492.809758,144.858024 494.46849,147.041861 496.034333,149.666876 C497.591329,152.291891 499.011203,155.080143 500.302802,158.018395 C501.589978,160.969883 502.841768,163.912547 504.062595,166.8508 C505.283421,169.797876 506.504248,172.383185 507.720651,174.606727 C507.857773,175.083201 508.331064,176.080265 509.149372,177.589098 C509.963256,179.102342 510.803681,180.690586 511.692761,182.358243 C512.572995,184.030312 513.386879,185.62738 514.129991,187.1318 C514.868679,188.649456 515.38178,189.562697 515.651601,189.875934 C515.788723,190.202407 516.093929,190.917117 516.567221,192.028888 C517.044935,193.145071 517.553613,194.37596 518.093254,195.725968 C518.637318,197.075976 519.145996,198.315689 519.62371,199.423049 C520.092579,200.543643 520.468558,201.174529 520.738378,201.333354 L525.011271,206.345148 C525.14397,206.662797 525.418214,207.381919 525.825156,208.489278 C526.227675,209.605461 526.568268,210.245171 526.842511,210.399583 C526.97521,210.721644 527.315803,211.321648 527.859867,212.195182 C528.395084,213.064305 529.040884,214.021663 529.788419,215.054022 C530.535954,216.090793 531.212717,217.048152 531.82313,217.917274 C532.433543,218.795221 532.805099,219.3114 532.942221,219.474636 C533.212041,219.792285 533.512825,220.343759 533.857841,221.137881 C534.194011,221.936415 534.432868,222.412889 534.56999,222.576125 C534.698265,222.893774 535.074244,223.687896 535.689081,224.962904 C536.299494,226.233499 536.971833,227.579095 537.723792,229.017339 C538.46248,230.451171 539.103857,231.761473 539.656767,232.948244 C540.191985,234.148251 540.598927,234.902667 540.873171,235.220316 C541.005869,235.379141 541.412811,235.979144 542.093997,237.007092 C542.77076,238.043862 543.244051,238.723278 543.513872,239.040927 C544.190634,239.993874 544.765661,240.549759 545.243376,240.708584 C545.721091,240.867408 546.229769,241.352705 546.769409,242.142416 C547.034806,242.460065 547.512521,243.338011 548.193707,244.763019 C548.87047,246.196851 549.277412,247.070386 549.414534,247.392446 C549.542809,247.551271 550.091296,248.186569 551.037879,249.29834 C551.984462,250.410111 552.594875,251.054232 552.869119,251.208645 C553.001818,251.526294 553.34241,252.086591 553.886475,252.880714 C554.426115,253.670424 555.005566,254.513076 555.620402,255.386611 C556.226392,256.260145 556.801419,257.138091 557.345483,258.011626 C557.885124,258.88516 558.225717,259.40134 558.358415,259.560164 C558.491114,259.718989 558.734395,260.080756 559.070564,260.636641 C559.406734,261.188115 559.650015,261.554294 559.782713,261.708706 C560.052534,261.073408 560.260428,259.718989 560.39755,257.649859 C560.525825,255.585141 560.66737,254.155721 560.800069,253.352775 L560.800069,250.493935 C560.800069,244.449782 560.561211,238.436512 560.092343,232.476183 C559.614628,226.50703 559.039601,220.581996 558.358415,214.692255 L558.358415,147.165391 C558.358415,146.684506 558.464574,145.969796 558.668045,145.012437 C558.867093,144.05949 559.243072,143.424192 559.782713,143.106544 L561.613953,143.106544 C562.427837,143.106544 563.308071,143.066837 564.259077,142.987425 C565.20566,142.908013 566.090317,142.868307 566.904202,142.868307 L568.731018,142.868307 L570.867465,142.868307 C571.747699,142.868307 572.627932,142.908013 573.503743,142.987425 C574.3884,143.066837 575.202284,143.106544 575.954242,143.106544 L577.272381,143.106544 C577.812022,143.106544 578.732065,143.14625 580.019241,143.225662 C581.306417,143.305074 582.726291,143.384486 584.292134,143.463899 C585.84913,143.543311 587.269005,143.666841 588.560604,143.821254 C589.843357,143.980078 590.758977,144.05949 591.303041,144.05949 C592.254047,144.858024 593.001582,145.810971 593.545646,146.922742 C594.085287,148.038925 594.492229,149.274227 594.757626,150.624235 C595.03187,151.978654 595.199955,153.328662 595.27515,154.67867 C595.337076,156.03309 595.438812,157.268391 595.575934,158.380162 C595.713056,160.766941 595.88114,164.265491 596.080188,168.880223 C596.288083,173.494956 596.491554,178.272925 596.690602,183.200895 C596.898496,188.128865 597.071004,192.584773 597.208126,196.559797 C597.336401,200.543643 597.407174,203.089247 597.407174,204.196606 C597.407174,206.106911 597.44256,209.049575 597.508909,213.02901 C597.575258,217.008445 597.606221,221.464354 597.606221,226.392324 L597.606221,242.142416 L597.606221,257.888096 C597.606221,262.829301 597.575258,267.280798 597.508909,271.255821 C597.44256,275.230844 597.407174,278.173508 597.407174,280.083814 C597.942391,284.539722 598.252021,288.519157 598.31837,292.013295 C598.389143,295.516257 598.424529,299.570692 598.424529,304.189837 C598.424529,304.983959 598.389143,306.056024 598.31837,307.406032 C598.252021,308.764863 598.216635,310.075165 598.216635,311.345761 C598.216635,312.620768 598.185672,313.767834 598.123746,314.804604 C598.044127,315.836963 598.017587,316.441379 598.017587,316.59138 C598.017587,317.394325 597.982201,318.823745 597.915851,320.888463 C597.840656,322.957593 597.77873,325.150253 597.71238,327.453208 C597.641608,329.756162 597.575258,331.909116 597.508909,333.894422 C597.44256,335.888551 597.407174,337.278265 597.407174,338.067975 C596.593289,338.231212 595.067256,338.429742 592.829074,338.672391 C590.590892,338.910627 588.184625,339.144452 585.610273,339.382689 C583.035921,339.625337 580.629654,339.823868 578.391472,339.982692 C576.15329,340.137105 574.63168,340.220929 573.813373,340.220929 L568.125028,340.220929 L562.427837,340.220929 C561.074312,339.744456 559.919835,338.787097 558.973252,337.357677 C558.022246,335.923845 557.208361,334.573837 556.527176,333.29883 C552.059658,324.709074 547.587717,316.159024 543.106929,307.64868 C538.634989,299.138336 533.822455,290.976524 528.669328,283.185302 C528.266809,282.713241 527.514851,281.67647 526.435569,280.083814 C525.347441,278.491157 524.599906,277.458798 524.197387,276.982325 C523.923143,276.664676 523.383503,275.945554 522.569618,274.829371 C521.760157,273.722012 520.8755,272.566123 519.928917,271.370527 C518.977911,270.179344 518.062291,269.027867 517.182057,267.916095 C516.2974,266.799912 515.788723,266.089614 515.651601,265.767553 C515.38178,265.445493 514.908489,264.655782 514.231726,263.380775 C513.554964,262.105767 512.838392,260.716053 512.09528,259.202809 C511.347745,257.693977 510.604633,256.260145 509.861521,254.910137 C509.113986,253.555718 508.671657,252.638065 508.538959,252.166004 C508.401837,251.843943 507.857773,250.855702 506.91119,249.179221 C505.960184,247.511565 505.34977,246.5145 505.07995,246.196851 C504.805706,245.720378 504.230679,244.5689 503.354869,242.738007 C502.470212,240.907114 501.554592,239.001221 500.608009,237.007092 C499.657003,235.021786 498.741383,233.111481 497.856726,231.280588 C496.980916,229.454106 496.472238,228.298217 496.339539,227.821744 C496.197994,227.667331 495.897211,227.151152 495.423919,226.268794 C494.941781,225.399671 494.640998,224.87908 494.508299,224.720255 C494.508299,224.87908 494.366754,225.399671 494.101357,226.268794 C493.827114,227.151152 493.694415,227.667331 493.694415,227.821744 L493.694415,228.774691 L493.694415,229.965874 C494.101357,240.951232 494.366754,251.843943 494.508299,262.661653 C494.640998,273.483775 494.981591,284.376486 495.525655,295.357432 C495.525655,295.675081 495.552195,296.429497 495.622967,297.620681 C495.69374,298.816276 495.791052,300.091283 495.932597,301.445703 C496.065296,302.791299 496.167031,304.066306 496.23338,305.261902 C496.29973,306.453085 496.339539,307.207501 496.339539,307.529562 L496.339539,334.01354 C497.011879,335.610608 497.352472,337.357677 497.352472,339.263571 C497.352472,339.585631 497.317085,339.77975 497.250736,339.863574 C497.184387,339.938575 497.149,340.137105 497.149,340.454754 L497.149,341.169464 C497.149,341.3327 496.910143,341.531231 496.441275,341.769468 C495.959137,342.007704 495.65393,342.206235 495.525655,342.365059 C492.270117,343.159182 489.182665,343.520948 486.26772,343.441536 C483.352775,343.357712 480.203396,343.322418 476.81516,343.322418 L464.000904,343.322418 C463.593962,343.322418 462.607569,343.198888 461.054996,342.969475 C459.493577,342.726826 458.511608,342.523884 458.104666,342.365059" id="Fill-14" fill="#000000"></path>
        <path d="M610.066615,296.49788 C610.066615,289.019895 610.84069,281.621322 612.406532,274.302162 C613.967952,266.987414 614.74645,259.593253 614.74645,252.106444 L614.74645,249.719666 C614.74645,247.65936 614.711064,244.513753 614.635868,240.296081 C614.560672,236.082821 614.445667,231.313676 614.299698,225.984233 C614.15373,220.65479 614.003338,214.998875 613.85737,209.038546 C613.702555,203.069393 613.556586,197.426714 613.410618,192.088447 C613.26465,186.763416 613.149644,181.950153 613.074448,177.653069 C612.999253,173.360397 612.959443,170.179496 612.959443,168.110366 L613.85737,148.782312 C613.85737,148.301427 614.003338,147.586717 614.299698,146.63377 C614.600482,145.676412 615.118006,145.045525 615.865541,144.723465 L631.032985,144.723465 C631.333768,144.723465 632.041494,144.68817 633.151738,144.599935 C634.266406,144.529346 635.456269,144.405816 636.721329,144.246991 C637.986388,144.088167 639.176252,143.969049 640.29092,143.885225 C641.410011,143.810224 642.113313,143.770518 642.414096,143.770518 L645.306925,143.770518 C647.098355,143.770518 649.177299,143.730812 651.561449,143.646988 C653.936753,143.571987 656.316481,143.52787 658.696208,143.52787 L664.499557,143.52787 L668.958229,143.52787 C671.037172,143.52787 673.235545,143.571987 675.5445,143.646988 C677.844608,143.730812 680.034134,143.770518 682.121924,143.770518 L686.359431,143.770518 C690.672134,144.246991 695.024646,144.926407 699.408121,145.799942 C703.800443,146.673476 707.99814,148.058778 712.014483,149.973495 C712.903563,149.973495 713.571479,150.211732 714.022654,150.688205 C719.671189,154.504404 724.877395,158.448545 729.636849,162.50298 C734.396304,166.557416 739.080562,171.211855 743.694048,176.461885 C747.108824,180.278084 749.718562,184.575168 751.496723,189.348725 C753.28373,194.122282 754.769954,198.97084 755.959817,203.903222 C756.260601,204.86058 756.667543,206.254706 757.18949,208.076776 C757.707015,209.91208 758.224539,211.822386 758.755333,213.807691 C759.268434,215.797409 759.754996,217.588596 760.197324,219.17684 C760.644076,220.773909 760.874087,221.801856 760.874087,222.278329 C761.316415,224.347459 761.537579,226.301882 761.537579,228.128363 C761.537579,229.954845 761.984331,231.746031 762.877835,233.497512 L762.877835,248.771131 C762.877835,249.08878 763.01938,249.604959 763.32901,250.319669 C763.620946,251.029967 763.771338,251.550559 763.771338,251.872619 L763.771338,252.58733 L763.771338,252.825566 C763.771338,252.988802 763.620946,253.381452 763.32901,254.01675 L762.877835,254.974108 C762.727443,255.44617 762.506279,256.209409 762.209919,257.237357 C761.909135,258.278539 761.763167,258.949131 761.763167,259.26678 L761.763167,260.700612 L761.763167,263.206509 L761.763167,265.707994 L761.763167,267.141826 C761.763167,267.300651 761.617198,267.662417 761.316415,268.213891 C761.015632,268.7786 760.874087,269.135956 760.874087,269.290368 C760.874087,269.608017 760.719272,270.485963 760.427335,271.919795 C760.126552,273.349215 759.980583,274.22275 759.980583,274.535987 C759.675376,275.493346 759.122466,277.165414 758.304158,279.552193 C757.48585,281.938971 756.632157,284.480163 755.738653,287.189002 C754.849573,289.897841 753.991455,292.439033 753.177571,294.825811 C752.35484,297.208178 751.797506,298.884659 751.496723,299.837605 C749.417779,302.542033 747.52019,305.440579 745.812802,308.54648 C744.100991,311.647968 742.05301,314.550926 739.673283,317.255354 C736.550444,321.234789 733.060472,324.455396 729.190098,326.921587 C725.324147,329.387778 721.232608,331.973087 716.915482,334.673103 C716.623546,334.831927 716.256413,335.034869 715.800815,335.277518 C715.358486,335.515755 715.057703,335.630461 714.911734,335.630461 C714.761343,335.789286 714.314591,335.833404 713.571479,335.745168 C712.83279,335.674579 712.310843,335.630461 712.014483,335.630461 C707.255028,336.428995 702.752124,337.262824 698.514618,338.136358 C694.272687,339.014304 689.553043,339.601073 684.35126,339.927545 L679.109667,339.927545 L670.072896,339.927545 L661.040549,339.927545 L655.794533,339.927545 C655.347781,339.927545 654.157918,339.962839 652.224942,340.042252 C650.291967,340.126076 648.283795,340.245194 646.204852,340.404018 C644.117061,340.558431 642.113313,340.681961 640.180338,340.761373 C638.247362,340.840786 637.057499,340.884904 636.610747,340.884904 L616.754621,340.884904 C616.453838,341.039316 615.976123,341.277553 615.308207,341.599614 C614.635868,341.912851 614.15373,341.912851 613.85737,341.599614 C613.702555,341.599614 613.525623,341.396671 613.295613,340.99961 C613.074448,340.602549 612.959443,340.245194 612.959443,339.927545 C612.813475,339.601073 612.627697,338.652538 612.406532,337.059881 C612.180945,335.476049 611.995167,334.359866 611.849199,333.724568 C611.101663,327.676003 610.623949,321.473026 610.402784,315.111224 C610.172774,308.749422 610.066615,302.542033 610.066615,296.49788" id="Fill-16" fill="#000000"></path>
        <path d="M775.540372,332.403678 L775.540372,332.862504 C775.540372,333.021328 775.690764,333.219859 775.99597,333.449272 C776.29233,333.683097 776.442722,333.881627 776.442722,334.031628 C777.044289,335.275753 777.495464,336.749291 777.796247,338.461066 C778.097031,340.164017 779.074577,341.019904 780.733308,341.019904 C781.635658,341.019904 782.387617,340.975787 782.993607,340.905198 C783.59075,340.821374 784.271936,340.556666 785.028318,340.089017 C786.833018,340.089017 789.885085,340.009604 794.171248,339.85078 C798.461834,339.700779 803.053203,339.586073 807.94978,339.50666 C812.837509,339.427248 817.433302,339.312542 821.728312,339.158129 C826.018898,338.999304 829.066541,338.924304 830.871242,338.924304 C838.244857,338.611067 845.808674,337.914004 853.571539,336.828703 C861.321134,335.747815 868.433776,333.100741 874.913888,328.905128 C879.27967,326.271289 883.163314,322.697739 886.542704,318.188889 C889.926517,313.688863 892.222202,308.955011 893.434182,303.982924 C893.58015,303.510862 893.805738,302.734387 894.106521,301.649086 C894.411728,300.563786 894.708088,299.434368 895.013294,298.269655 C895.314078,297.104942 895.610438,296.059348 895.911221,295.124048 C896.216428,294.197572 896.36682,293.57551 896.36682,293.266685 L896.36682,292.569622 L896.36682,292.09756 C896.216428,291.479909 895.995264,290.20049 895.69448,288.254891 C895.38485,286.313703 895.013294,284.297515 894.562119,282.197502 C894.106521,280.106314 893.730542,278.081302 893.434182,276.140114 C893.124552,274.203338 892.903388,272.840095 892.752996,272.059208 C892.452213,271.754794 892.222202,271.097438 892.076233,270.082726 C891.925842,269.076838 891.700254,268.415069 891.399471,268.101832 C891.399471,267.951831 891.284465,267.484181 891.063301,266.703294 C890.828867,265.931231 890.722708,265.463581 890.722708,265.309168 C890.722708,264.995931 890.828867,264.457693 891.063301,263.676806 C891.284465,262.900331 891.399471,262.437093 891.399471,262.278268 L891.399471,261.581206 L891.399471,261.347381 C891.244656,261.038555 890.797904,260.341492 890.041522,259.25178 C889.289564,258.16648 888.838389,257.469417 888.69242,257.151768 C888.69242,256.997355 888.577415,256.494411 888.347404,255.638524 C888.12624,254.782636 887.936039,254.279692 887.785647,254.12528 C887.785647,253.970867 887.56006,253.65763 887.108884,253.194392 C886.657709,252.726742 886.206534,252.22821 885.755359,251.681148 C885.299761,251.134086 884.848586,250.591436 884.397411,250.048785 C883.946236,249.506135 883.716225,249.157604 883.716225,249.003191 C883.716225,248.848778 883.605643,248.381129 883.380055,247.604653 C883.163314,246.828178 882.96869,246.360528 882.818298,246.206116 C882.663483,245.89729 882.216732,245.509053 881.46035,245.036991 C880.703968,244.578165 880.182021,244.339928 879.881237,244.339928 C879.57603,244.189928 879.014273,243.682572 878.187119,242.822273 C877.359965,241.975209 876.497424,241.079615 875.590651,240.148728 C874.688301,239.21784 873.781527,238.366364 872.879177,237.585477 C871.976827,236.809002 871.446033,236.345764 871.300065,236.18694 C870.844466,235.873703 869.86692,235.220758 868.363004,234.201634 C866.854663,233.200158 865.877117,232.613389 865.430366,232.458977 C865.877117,231.841326 866.704272,230.751614 867.911828,229.194252 C869.119385,227.645713 870.397715,226.017763 871.75124,224.305988 C873.100342,222.598625 874.343285,221.005969 875.475645,219.532431 C876.603583,218.054481 877.395351,217.008887 877.846526,216.386824 C880.858783,212.350036 882.778489,208.313248 883.605643,204.267636 C884.432797,200.230848 884.848586,195.810233 884.848586,190.992558 L884.848586,185.164583 C884.848586,185.014582 884.583189,183.929282 884.061241,181.90427 C883.530447,179.892494 883.114658,178.414544 882.818298,177.479244 C880.407608,168.624781 876.3028,161.985036 870.508297,157.56001 C864.70937,153.130573 858.092136,150.029084 850.630055,148.246721 C843.181243,146.464357 835.391839,145.533469 827.261841,145.445234 C819.12742,145.370233 811.519371,145.330527 804.450961,145.330527 C803.995363,145.798177 802.75242,146.107002 800.722132,146.261415 C798.687421,146.420239 796.431546,146.49524 793.94566,146.49524 C791.459774,146.49524 789.009274,146.420239 786.607431,146.261415 C784.19674,146.107002 782.458389,145.873177 781.410071,145.55994 C781.109288,145.873177 780.321943,146.261415 779.043614,146.729065 C777.760861,147.196714 776.89832,147.814365 776.442722,148.59084 C776.442722,152.164391 776.478108,157.56001 776.557728,164.782111 C776.6285,172.004212 776.66831,180.157201 776.66831,189.245489 L776.66831,218.014775 L776.66831,246.788472 C776.66831,255.872349 776.6285,264.025337 776.557728,271.247438 C776.478108,278.469539 776.442722,283.790159 776.442722,287.209296 C776.442722,288.294597 776.407336,290.972554 776.327717,295.243167 C776.256944,299.518192 776.141939,304.09763 775.99597,308.985894 C775.841155,313.882981 775.72615,318.502126 775.650954,322.852151 C775.571335,327.197765 775.540372,329.91984 775.540372,331.00514 L775.540372,332.403678 Z" id="Fill-18" fill="#000000"></path>
        <path d="M1321.31267,337.000763 C1321.97617,337.997828 1322.52908,338.827245 1323.00679,339.541955 C1327.63797,342.639032 1333.03438,344.699338 1338.89966,345.978757 C1339.08101,345.956698 1339.21371,345.947874 1339.3066,345.947874 C1340.56723,345.793462 1342.92042,345.590519 1346.35731,345.356694 C1349.77651,345.114046 1353.39034,344.796397 1357.17224,344.399336 C1360.96742,344.002275 1364.5724,343.680214 1368.00487,343.441977 C1371.43291,343.203741 1373.87014,343.00521 1375.31214,342.846386 L1377.74937,340.697844 L1377.74937,340.455195 C1377.74937,336.802233 1376.56835,332.82721 1374.22843,328.530126 C1371.87524,324.237454 1365.34647,319.009482 1363.73198,315.824169 C1363.73198,315.669756 1363.54177,315.153577 1363.18791,314.271219 C1362.8252,313.397684 1362.63942,312.881505 1362.63942,312.72268 C1362.46249,312.563856 1361.92285,312.091794 1361.02493,311.288849 C1360.11373,310.494726 1359.57409,309.943252 1359.39273,309.621192 C1358.85752,309.144718 1357.99498,308.107948 1356.82281,306.519703 C1355.65506,304.927047 1354.88541,303.9741 1354.52712,303.652039 C1352.17836,299.994665 1340.27087,291.854912 1337.93096,287.081354 C1335.58661,282.312209 1332.96803,278.332774 1330.07078,275.147461 C1327.91222,272.923919 1325.8377,270.373904 1323.84722,267.510652 C1321.86559,264.651812 1319.968,262.11062 1318.16772,259.878254 C1317.98636,259.560606 1317.66789,258.841484 1317.21671,257.729712 C1316.77438,256.617941 1316.36302,255.903231 1316.00473,255.581171 L1316.00473,254.623812 C1321.23306,252.881155 1325.91731,250.137021 1330.07078,246.395823 C1334.22424,242.659036 1337.78941,238.397247 1340.7707,233.628101 C1343.74758,228.850132 1346.00345,223.882456 1347.53391,218.71625 C1349.06436,213.545631 1349.83402,208.648544 1349.83402,204.033811 C1349.83402,197.830834 1348.79897,191.469032 1346.72445,184.943994 C1344.64108,178.423367 1341.6244,172.454215 1337.65671,167.049772 C1333.6846,161.640916 1328.67302,157.021772 1322.63081,153.209985 C1316.58418,149.389374 1309.68828,147.082008 1301.92542,146.283474 C1301.3902,146.283474 1300.43919,146.212885 1299.09009,146.049649 C1297.73214,145.890825 1296.29015,145.767294 1294.75527,145.692294 C1293.21597,145.60847 1291.81821,145.533469 1290.562,145.449645 C1289.30136,145.370233 1288.48305,145.330527 1288.12919,145.330527 L1242.93649,145.330527 C1242.20665,145.648176 1240.67619,145.890825 1238.33185,146.049649 C1235.98751,146.212885 1234.44821,146.283474 1233.73164,146.283474 C1232.82486,146.283474 1231.33422,146.327592 1229.26412,146.402592 C1227.1896,146.486416 1225.02661,146.521711 1222.77074,146.521711 C1220.51486,146.521711 1218.30322,146.486416 1216.14023,146.402592 C1213.9684,146.327592 1212.52641,146.283474 1211.80984,146.283474 L1210.45631,147.479069 L1209.36818,155.354115 L1209.36818,159.651199 C1209.36818,161.879153 1209.32395,164.345344 1209.23548,167.049772 C1209.14702,169.754199 1209.10279,172.414509 1209.10279,175.039524 L1209.10279,180.885146 C1208.91701,182.795452 1208.69584,185.543997 1208.4216,189.126371 C1208.1562,192.699921 1207.97485,196.242589 1207.87754,199.741139 C1207.79349,203.2441 1207.83669,206.345589 1208.0235,209.050017 C1208.19601,211.754444 1208.64719,213.347101 1209.36818,213.819162 C1209.36818,214.776521 1209.54954,217.158887 1209.91225,220.979498 C1210.27053,224.795697 1210.63324,228.89425 1211.00038,233.266334 C1211.35424,237.647242 1211.75676,241.736972 1212.21236,245.557583 C1212.65911,249.378193 1212.88912,251.764972 1212.88912,252.717919 C1213.06605,254.782636 1213.2474,258.051773 1213.42876,262.498858 C1213.60569,266.959178 1213.74724,272.010678 1213.8357,277.65777 C1213.92859,283.304862 1214.06129,289.229896 1214.24707,295.432874 C1214.41957,301.635851 1214.60093,307.565297 1214.78671,313.212389 C1214.96364,318.863893 1215.09634,323.950687 1215.18923,328.481596 C1215.27769,333.016917 1215.32635,336.325759 1215.32635,338.386066 C1215.32635,338.549302 1215.41481,338.911069 1215.60059,339.462542 C1215.7731,340.02284 1216.04292,340.384607 1216.40563,340.534607 C1216.76834,340.693432 1217.80781,341.015493 1219.51962,341.491966 C1221.23586,341.968439 1222.45226,342.281676 1223.17768,342.440501 C1223.71732,342.603737 1224.61525,342.80668 1225.88473,343.040504 C1227.14094,343.278741 1228.35734,343.516978 1229.53394,343.755214 C1230.70611,343.997863 1231.79424,344.191982 1232.78063,344.355218 C1233.77587,344.509631 1234.44821,344.589043 1234.81092,344.589043 L1240.49484,344.589043 C1244.64388,344.589043 1248.11616,344.549337 1250.91167,344.469925 C1253.71161,344.390512 1257.17947,344.116981 1261.33293,343.636096 C1262.59799,343.477272 1264.08422,343.119917 1265.80045,342.564031 C1267.51669,342.008145 1268.3748,340.93608 1268.3748,339.339012 L1268.3748,299.729958 C1267.46361,297.502003 1266.92396,295.075519 1266.74703,292.450503 C1266.5701,289.825488 1266.38432,287.403415 1266.20739,285.175461 C1265.66775,281.831324 1265.12369,278.531304 1264.58405,275.270991 C1264.04441,272.010678 1263.77459,268.706247 1263.77459,265.366522 L1263.77459,263.937102 C1267.02128,266.32388 1269.8566,269.143014 1272.29826,272.403328 C1274.73549,275.672464 1276.9427,278.968072 1278.92876,282.312209 L1318.4685,332.584561 C1318.83121,333.224271 1319.77779,334.697809 1321.31267,337.000763" id="Fill-20" fill="#000000"></path>
        <path d="M1198.37234,321.964499 C1193.1219,309.911488 1188.32706,305.354108 1181.88233,294.298161 C1177.14942,286.180467 1174.84046,279.893665 1168.86018,272.671564 C1168.76729,273.148038 1165.02077,264.880342 1164.91019,265.127403 C1164.76422,264.968578 1164.51209,264.611223 1164.15823,264.050926 C1163.80437,263.49504 1163.54782,263.137685 1163.4107,262.978861 C1163.26915,262.824448 1162.90644,262.303857 1162.34026,261.425911 C1161.77408,260.552376 1161.16367,259.683253 1160.51787,258.805307 C1159.88092,257.927361 1159.2705,257.093532 1158.6999,256.29941 C1158.12929,255.505288 1157.77101,254.94499 1157.62946,254.62293 C1157.34637,254.472929 1156.70057,253.833219 1155.70533,252.717036 C1154.70125,251.609677 1154.13064,250.969967 1153.99352,250.811143 C1153.84755,250.489082 1153.4185,249.615547 1152.70635,248.181716 C1151.98978,246.752295 1151.48994,245.883173 1151.20685,245.561112 C1150.63625,244.76699 1150.10103,244.290516 1149.60562,244.122868 C1149.09695,243.968456 1148.4998,243.41257 1147.78323,242.459623 C1147.49129,242.137563 1147.00031,241.466971 1146.28374,240.4302 C1145.56717,239.397841 1145.13811,238.793425 1145.00099,238.634601 C1144.70905,238.321364 1144.28441,237.562536 1143.71823,236.371353 C1143.14321,235.180169 1142.46202,233.865456 1141.68352,232.431624 C1140.89175,231.002204 1140.18403,229.652196 1139.54265,228.377188 C1138.90128,227.102181 1138.50318,226.308059 1138.36606,225.99041 C1138.21567,225.831585 1137.97239,225.359524 1137.6141,224.556578 C1137.25581,223.762455 1136.93291,223.20657 1136.64982,222.888921 C1136.50828,222.734508 1136.11461,222.218329 1135.47323,221.331559 C1134.82743,220.462436 1134.11528,219.509489 1133.32794,218.472719 C1132.54502,217.44036 1131.86383,216.487413 1131.29765,215.613878 C1130.72705,214.735932 1130.36876,214.144752 1130.22721,213.81828 C1129.93528,213.663867 1129.58141,213.024157 1129.15678,211.912386 C1128.72772,210.800615 1128.44021,210.085905 1128.29866,209.759433 L1123.80903,204.756462 C1123.51709,204.588814 1123.12342,203.957928 1122.62801,202.841745 C1122.12818,201.729974 1121.59296,200.499084 1121.02678,199.144665 C1120.45175,197.794657 1119.91654,196.559356 1119.41228,195.443173 C1118.91245,194.331401 1118.59397,193.616691 1118.45243,193.299042 C1118.16049,192.981393 1117.6297,192.068153 1116.84678,190.554909 C1116.06386,189.046076 1115.20574,187.45342 1114.27685,185.781351 C1113.34796,184.109283 1112.45888,182.52545 1111.60076,181.007794 C1110.74264,179.498962 1110.24281,178.497485 1110.10569,178.025424 C1108.81852,175.79747 1107.53576,173.216572 1106.25301,170.269496 C1104.96583,167.326832 1103.64327,164.384168 1102.28975,161.437092 C1100.9318,158.494427 1099.43231,155.710588 1097.79127,153.089984 C1096.15023,150.460557 1094.40303,148.276721 1092.54967,146.520828 C1091.54559,146.520828 1089.79839,146.489946 1087.30366,146.40171 C1084.8045,146.326709 1082.1638,146.212003 1079.38156,146.048767 C1076.59931,145.889942 1073.92322,145.766412 1071.34887,145.691412 C1068.78336,145.607588 1066.99636,145.488469 1066.00112,145.329645 L1062.5775,145.329645 C1061.29474,145.329645 1060.22431,145.373763 1059.36619,145.448763 C1058.5125,145.532587 1057.36687,145.889942 1055.93815,146.520828 C1055.93815,147.478187 1055.97353,149.110549 1056.0443,151.417916 C1056.11508,153.725282 1056.15489,156.191473 1056.15489,158.816488 C1056.15489,161.437092 1056.11508,163.907694 1056.0443,166.210649 C1055.97353,168.522427 1055.93815,170.150378 1055.93815,171.103325 C1055.93815,171.743034 1055.83199,173.097454 1055.62409,175.162172 C1055.40735,177.231302 1055.226,178.585721 1055.08003,179.221019 L1055.08003,187.572538 C1055.08003,191.54315 1055.04907,195.765233 1054.97387,200.21673 C1054.89867,204.672638 1054.87213,208.885898 1054.87213,212.860921 L1054.87213,231.721325 C1054.87213,236.177234 1054.89867,240.62873 1054.97387,245.080227 C1055.04907,249.536135 1055.08003,253.51557 1055.08003,257.009708 L1055.08003,262.978861 C1055.08003,265.052402 1055.15522,268.273009 1055.29235,272.640682 C1055.43831,277.02159 1055.58428,281.914265 1055.72583,287.318709 C1055.86295,292.731976 1056.0443,298.418773 1056.26105,304.383514 C1056.47336,310.343843 1056.6901,316.035053 1056.90242,321.443908 C1057.11916,326.852763 1057.29167,331.74985 1057.44206,336.117523 C1057.47303,337.14547 1057.49957,338.094005 1057.53495,338.99401 C1060.15796,340.886668 1063.44446,342.580796 1067.0804,343.944039 C1076.05082,342.558737 1085.28664,340.864609 1093.71742,337.538119 C1096.89776,335.711638 1099.95868,333.461625 1102.9267,330.818963 C1103.26729,330.02484 1103.62116,329.195424 1103.93521,328.493949 C1104.43946,327.382178 1104.82871,326.742468 1105.1118,326.583644 L1109.61028,321.576262 C1109.75183,321.254201 1110.03492,320.539491 1110.4684,319.42772 C1110.89304,318.315948 1111.2469,317.671827 1111.53441,317.517414 C1111.67153,317.195354 1112.03424,316.599762 1112.60485,315.726227 C1113.17103,314.852693 1113.85664,313.899746 1114.63513,312.862975 C1115.41806,311.826205 1116.14348,310.873258 1116.78043,310.004135 C1117.42623,309.121777 1117.81548,308.605598 1117.96145,308.451185 C1118.24454,308.129124 1118.56301,307.573239 1118.92572,306.783528 C1119.27516,305.980582 1119.52729,305.504109 1119.67326,305.345284 C1119.81038,305.027636 1120.20847,304.229101 1120.84985,302.958506 C1121.49123,301.683498 1122.19895,300.337902 1122.99072,298.899659 C1123.77364,297.470239 1124.4504,296.155525 1125.02543,294.968753 C1125.59161,293.773158 1126.02067,293.01433 1126.30818,292.701093 C1126.44973,292.542269 1126.87436,291.937853 1127.59094,290.909906 C1128.30751,289.873135 1128.80292,289.198131 1129.09043,288.880482 C1129.80258,287.923124 1130.40857,287.367238 1130.91282,287.212826 C1131.24899,287.106943 1131.60728,286.793706 1131.97883,286.396644 C1132.04076,286.462821 1132.10711,286.551057 1132.15134,286.603999 C1137.57429,294.399632 1142.64337,302.557033 1147.35417,311.067377 C1152.06055,319.57772 1156.77577,328.12777 1161.48214,336.721938 C1162.19872,337.992534 1163.05683,339.33813 1164.05207,340.776374 C1165.04731,342.205794 1166.26372,343.163152 1167.69244,343.635214 L1179.67954,347.054351 C1180.53766,347.054351 1182.14331,346.974939 1184.49207,346.820526 C1186.85853,346.65729 1194.65678,346.970527 1197.36383,346.732291 C1200.07973,346.494054 1197.34171,342.324912 1199.6949,342.091087 C1202.05251,341.848439 1203.65374,341.649908 1204.51628,341.491084 C1204.51628,340.69255 1204.55167,339.307247 1204.61802,337.313118 C1204.63129,337.004293 1204.64456,336.664585 1204.65783,336.351348 C1202.51253,331.62632 1200.4734,326.790998 1198.37234,321.964499" id="Fill-22" fill="#000000"></path>
        <path d="M1044.32614,321.964499 C1039.08012,309.911488 1034.28528,305.354108 1027.84056,294.298161 C1023.10764,286.180467 1020.80311,279.893665 1014.82283,272.671564 C1014.72994,273.148038 1010.98342,264.880342 1010.87284,265.127403 C1010.72244,264.968578 1010.47474,264.611223 1010.12088,264.050926 C1009.76259,263.49504 1009.51046,263.137685 1009.36892,262.978861 C1009.22295,262.824448 1008.86909,262.303857 1008.29848,261.425911 C1007.72788,260.552376 1007.12631,259.683253 1006.47609,258.805307 C1005.83471,257.927361 1005.22872,257.093532 1004.6537,256.29941 C1004.08752,255.505288 1003.72923,254.94499 1003.58769,254.62293 C1003.30017,254.472929 1002.65437,253.833219 1001.66356,252.717036 C1000.66389,251.609677 1000.08887,250.969967 999.951745,250.811143 C999.805777,250.489082 999.376718,249.615547 998.664569,248.181716 C997.952421,246.752295 997.448166,245.883173 997.169499,245.561112 C996.594472,244.76699 996.054831,244.290516 995.563847,244.122868 C995.059592,243.968456 994.458026,243.41257 993.741453,242.459623 C993.45394,242.137563 992.954109,241.466971 992.246383,240.4302 C991.529811,239.397841 991.100752,238.793425 990.959207,238.634601 C990.671694,238.321364 990.242635,237.562536 989.676455,236.371353 C989.101428,235.180169 988.420242,233.865456 987.641744,232.431624 C986.854399,231.002204 986.14225,229.652196 985.496451,228.377188 C984.855074,227.102181 984.461402,226.308059 984.32428,225.99041 C984.173888,225.831585 983.926184,225.359524 983.572322,224.556578 C983.214036,223.762455 982.895559,223.20657 982.608046,222.888921 C982.4665,222.734508 982.072828,222.218329 981.431452,221.331559 C980.790076,220.462436 980.073503,219.509489 979.290582,218.472719 C978.503237,217.44036 977.826475,216.487413 977.260294,215.613878 C976.685267,214.735932 976.326981,214.144752 976.189859,213.81828 C975.897923,213.663867 975.54406,213.024157 975.115001,211.912386 C974.690366,210.800615 974.398429,210.085905 974.256884,209.759433 L969.762827,204.756462 C969.475313,204.588814 969.081641,203.957928 968.586233,202.841745 C968.086402,201.729974 967.551184,200.499084 966.98058,199.144665 C966.409977,197.794657 965.879183,196.559356 965.374928,195.443173 C964.875097,194.331401 964.552197,193.616691 964.415075,193.299042 C964.123138,192.981393 963.587921,192.068153 962.805,190.554909 C962.022078,189.046076 961.159538,187.45342 960.239494,185.781351 C959.306181,184.109283 958.417101,182.52545 957.563407,181.007794 C956.700867,179.498962 956.201035,178.497485 956.063914,178.025424 C954.776738,175.79747 953.489562,173.216572 952.206809,170.269496 C950.924057,167.326832 949.601494,164.384168 948.247969,161.437092 C946.890021,158.494427 945.394951,155.710588 943.753912,153.089984 C942.112873,150.460557 940.356829,148.276721 938.503473,146.520828 C937.508234,146.520828 935.756613,146.489946 933.26188,146.40171 C930.758301,146.326709 928.126447,146.212003 925.344201,146.048767 C922.557531,145.889942 919.881444,145.766412 917.311515,145.691412 C914.74601,145.607588 912.959003,145.488469 911.959341,145.329645 L908.535718,145.329645 C907.252966,145.329645 906.182531,145.373763 905.31999,145.448763 C904.466296,145.532587 903.320666,145.889942 901.900791,146.520828 C901.900791,147.478187 901.931754,149.110549 902.002527,151.417916 C902.077723,153.725282 902.113109,156.191473 902.113109,158.816488 C902.113109,161.437092 902.077723,163.907694 902.002527,166.210649 C901.931754,168.522427 901.900791,170.150378 901.900791,171.103325 C901.900791,171.743034 901.790209,173.097454 901.577891,175.162172 C901.365574,177.231302 901.184219,178.585721 901.038251,179.221019 L901.038251,187.572538 C901.038251,191.54315 901.002864,195.765233 900.936515,200.21673 C900.861319,204.672638 900.830356,208.885898 900.830356,212.860921 L900.830356,231.721325 C900.830356,236.177234 900.861319,240.62873 900.936515,245.080227 C901.002864,249.536135 901.038251,253.51557 901.038251,257.009708 L901.038251,262.978861 C901.038251,265.052402 901.113446,268.273009 901.254992,272.640682 C901.396537,277.02159 901.542505,281.914265 901.68405,287.318709 C901.825595,292.731976 902.002527,298.418773 902.219268,304.383514 C902.431585,310.343843 902.648326,316.035053 902.865067,321.443908 C903.072962,326.852763 903.254316,331.74985 903.395861,336.117523 C903.426824,337.14547 903.462211,338.094005 903.497597,338.99401 C906.116182,340.886668 909.402682,342.580796 913.043046,343.944039 C922.009044,342.558737 931.244863,340.864609 939.675643,337.538119 C942.860408,335.711638 945.921321,333.461625 948.889346,330.818963 C949.229939,330.02484 949.583801,329.195424 949.893431,328.493949 C950.397686,327.382178 950.786935,326.742468 951.070025,326.583644 L955.572929,321.576262 C955.710051,321.254201 955.993141,320.539491 956.426623,319.42772 C956.851258,318.315948 957.205121,317.671827 957.497058,317.517414 C957.63418,317.195354 957.988042,316.599762 958.567493,315.726227 C959.133673,314.852693 959.814859,313.899746 960.59778,312.862975 C961.380702,311.826205 962.097274,310.873258 962.743074,310.004135 C963.380027,309.121777 963.778122,308.605598 963.915244,308.451185 C964.207181,308.129124 964.521234,307.573239 964.87952,306.783528 C965.233383,305.980582 965.489933,305.504109 965.627055,305.345284 C965.7686,305.027636 966.162273,304.229101 966.808072,302.958506 C967.449449,301.683498 968.161597,300.337902 968.953365,298.899659 C969.736287,297.470239 970.408626,296.155525 970.983653,294.968753 C971.549834,293.773158 971.978892,293.01433 972.266406,292.701093 C972.407951,292.542269 972.837009,291.937853 973.553582,290.909906 C974.261307,289.873135 974.761138,289.198131 975.048652,288.880482 C975.765224,287.923124 976.371214,287.367238 976.871045,287.212826 C977.211638,287.106943 977.565501,286.793706 977.937057,286.396644 C977.99456,286.462821 978.069755,286.551057 978.113988,286.603999 C983.536935,294.399632 988.60602,302.557033 993.312395,311.067377 C998.023193,319.57772 1002.73399,328.12777 1007.44037,336.721938 C1008.15252,337.992534 1009.01063,339.33813 1010.01472,340.776374 C1011.00996,342.205794 1012.22194,343.163152 1013.65066,343.635214 L1025.63776,347.054351 C1026.49588,347.054351 1028.10153,346.974939 1030.45472,346.820526 C1032.81675,346.65729 1040.615,346.970527 1043.32648,346.732291 C1046.03795,346.494054 1043.30436,342.324912 1045.65312,342.091087 C1048.01073,341.848439 1049.61639,341.649908 1050.4745,341.491084 C1050.4745,340.69255 1050.50989,339.307247 1050.58066,337.313118 C1050.59393,337.004293 1050.59836,336.664585 1050.61163,336.351348 C1048.46633,331.62632 1046.43162,326.790998 1044.32614,321.964499" id="Fill-24" fill="#000000"></path>
        <path d="M1396.78939,308.121624 C1396.78939,306.943676 1396.81151,305.81867 1396.86901,304.737781 C1396.91325,303.661304 1397.12114,302.562768 1397.47943,301.43335 C1398.15177,299.134807 1399.19124,296.942147 1400.60227,294.868606 C1402.01772,292.790652 1403.51279,290.809758 1405.10959,288.912689 C1405.82617,288.096507 1406.56928,287.408268 1407.34335,286.843559 C1408.113,286.27885 1409.01093,285.661199 1410.03713,284.99943 C1412.24878,283.512657 1414.61966,282.268532 1417.15862,281.271459 C1419.70643,280.274403 1422.3604,279.771459 1425.1338,279.771459 C1428.00894,279.771459 1430.78234,280.005284 1433.454,280.468522 C1436.12124,280.922936 1438.73983,281.902354 1441.30976,283.384715 C1441.41149,283.433245 1441.68131,283.640599 1442.11922,283.993542 C1442.55712,284.355309 1442.82252,284.584722 1442.92868,284.690605 C1444.56972,285.868553 1446.20191,286.99356 1447.81641,288.070037 C1449.43533,289.146513 1450.91271,290.425933 1452.24854,291.908294 C1452.24854,291.965648 1452.35028,292.102413 1452.55375,292.336238 C1452.75722,292.565651 1452.97838,292.830358 1453.21282,293.143596 C1453.44283,293.448009 1453.68611,293.765658 1453.94266,294.100954 C1454.19479,294.43625 1454.38056,294.674487 1454.4823,294.8289 C1454.53095,294.934783 1454.65038,295.111254 1454.82731,295.367138 C1455.00425,295.627434 1455.12367,295.777435 1455.17233,295.830376 C1455.22983,295.878906 1455.3935,296.046554 1455.67659,296.328908 C1455.95525,296.611263 1456.12334,296.805382 1456.17642,296.906853 C1456.2295,296.955383 1456.23834,297.175972 1456.21623,297.555386 C1456.18969,297.943624 1456.17642,298.159801 1456.17642,298.212743 C1456.17642,298.314214 1456.27815,298.636275 1456.48162,299.170101 C1456.68952,299.70834 1456.81779,300.025989 1456.87087,300.131872 C1456.87087,300.180401 1456.89299,300.321579 1456.94607,300.555404 C1456.99915,300.784817 1457.06107,301.031877 1457.14069,301.278937 C1457.21589,301.539233 1457.29551,301.781881 1457.3707,302.011294 C1457.4459,302.245119 1457.49013,302.386297 1457.49013,302.434826 C1457.53437,302.536297 1457.65379,302.770122 1457.83073,303.123066 C1458.01208,303.484832 1458.10055,303.718657 1458.10055,303.820129 L1458.10055,305.355432 C1458.10055,305.456903 1458.11382,305.624551 1458.14036,305.853964 C1458.16689,306.083377 1458.20228,306.330437 1458.25536,306.581909 C1458.30402,306.842205 1458.34383,307.084853 1458.37037,307.314267 C1458.39691,307.54368 1458.41018,307.684857 1458.41018,307.737798 C1458.41018,307.79074 1458.42787,308.006918 1458.44998,308.390743 C1458.4721,308.774569 1458.48537,309.206925 1458.48537,309.696633 C1458.48537,310.18193 1458.49422,310.667227 1458.52518,311.152524 C1458.55172,311.642233 1458.56499,312.043706 1458.56499,312.348119 C1458.56499,314.39519 1458.48537,316.623144 1458.33498,319.031982 C1458.17574,321.44082 1457.68918,323.562891 1456.87087,325.407019 C1456.76914,325.561432 1456.63644,325.790845 1456.48162,326.095258 C1456.33123,326.408496 1456.17642,326.73938 1456.02602,327.096735 C1455.86679,327.45409 1455.6987,327.789386 1455.52177,328.0938 C1455.34042,328.402625 1455.22983,328.63645 1455.17233,328.790862 C1455.12367,328.887922 1455.00425,329.05557 1454.82731,329.284983 C1454.65038,329.518808 1454.53095,329.682044 1454.4823,329.783515 C1453.30128,331.217347 1452.02738,332.62912 1450.66943,334.010011 C1449.30706,335.395313 1447.95795,336.723262 1446.63097,338.002681 C1445.75073,338.827686 1444.72453,339.542396 1443.54352,340.160046 C1442.3625,340.768874 1441.28764,341.360053 1440.31009,341.924763 C1438.71329,342.793885 1436.85993,343.345359 1434.72349,343.574772 C1432.59589,343.808597 1430.6806,343.923304 1428.98648,343.923304 C1425.69998,343.923304 1422.56388,343.535066 1419.587,342.771826 C1416.61013,342.004175 1413.75712,340.751226 1411.0368,339.004157 C1410.83332,338.902686 1410.55908,338.743862 1410.23176,338.545331 C1409.89559,338.342389 1409.57711,338.121799 1409.26748,337.887974 C1408.95785,337.658561 1408.68803,337.464442 1408.45802,337.314442 C1408.22801,337.160029 1408.09089,337.06297 1408.03338,337.005616 C1407.98473,337.005616 1407.71491,336.789439 1407.22392,336.357083 C1406.73736,335.920316 1406.16234,335.395313 1405.49442,334.777662 C1404.82208,334.164423 1404.14532,333.551184 1403.45529,332.937945 C1402.76083,332.320295 1402.1858,331.808527 1401.72136,331.398231 C1401.77001,331.398231 1401.72136,331.32323 1401.56654,331.173229 L1401.41173,331.014405 C1401.35865,330.912934 1401.25691,330.595285 1401.10652,330.052635 C1400.94728,329.518808 1400.84555,329.192335 1400.79247,329.095276 C1400.17763,327.608503 1399.56279,326.201141 1398.94353,324.868781 C1398.33312,323.540832 1397.84214,322.080529 1397.47943,320.492285 C1397.43077,320.439343 1397.4175,320.231989 1397.44404,319.874634 C1397.46616,319.517279 1397.47943,319.309925 1397.47943,319.261395 C1397.27596,317.368737 1397.10787,315.511373 1396.9796,313.693716 C1396.85574,311.876058 1396.78939,310.018694 1396.78939,308.121624" id="Fill-26" fill="#EC008C"></path>
    </g>
</svg>